<svg width="2999" height="890.0000000000001" xmlns="http://www.w3.org/2000/svg" xmlns:xlink="http://www.w3.org/1999/xlink">
 <defs>
  <linearGradient x1="0.613" y1="0.956" x2="0.26" y2="0.278" id="a">
   <stop stop-color="#00A0FF" offset="0%"/>
   <stop stop-color="#00A1FF" offset=".657%"/>
   <stop stop-color="#00BEFF" offset="26.01%"/>
   <stop stop-color="#00D2FF" offset="51.22%"/>
   <stop stop-color="#00DFFF" offset="76.04%"/>
   <stop stop-color="#00E3FF" offset="100%"/>
  </linearGradient>
  <linearGradient x1="1.076" y1="0.509" x2="-1.305" y2="0.509" id="b">
   <stop stop-color="#FFE000" offset="0%"/>
   <stop stop-color="#FFBD00" offset="40.87%"/>
   <stop stop-color="orange" offset="77.54%"/>
   <stop stop-color="#FF9C00" offset="100%"/>
  </linearGradient>
  <linearGradient x1="0.867" y1="0.691" x2="-0.505" y2="-0.361" id="c">
   <stop stop-color="#FF3A44" offset="0%"/>
   <stop stop-color="#C31162" offset="100%"/>
  </linearGradient>
  <linearGradient x1="-0.193" y1="1.119" x2="0.418" y2="0.649" id="d">
   <stop stop-color="#32A071" offset="0%"/>
   <stop stop-color="#2DA771" offset="6.85%"/>
   <stop stop-color="#15CF74" offset="47.62%"/>
   <stop stop-color="#06E775" offset="80.09%"/>
   <stop stop-color="#00F076" offset="100%"/>
  </linearGradient>
  <linearGradient x1="0.862" y1="0.695" x2="-0.501" y2="-0.021" id="e">
   <stop stop-color="#CC2E36" offset="0%"/>
   <stop stop-color="#9C0E4E" offset="100%"/>
  </linearGradient>
  <linearGradient x1="3.073" y1="15.318" x2="-0.663" y2="4.496" id="f">
   <stop stop-color="#008DE0" offset="0%"/>
   <stop stop-color="#008DE0" offset=".657%"/>
   <stop stop-color="#00A7E0" offset="26.01%"/>
   <stop stop-color="#00B8E0" offset="51.22%"/>
   <stop stop-color="#00C4E0" offset="76.04%"/>
   <stop stop-color="#00C7E0" offset="100%"/>
  </linearGradient>
  <linearGradient x1="1.128" y1="1" x2="-2.882" y2="1" id="g">
   <stop stop-color="#E0C500" offset="0%"/>
   <stop stop-color="#E0A600" offset="40.87%"/>
   <stop stop-color="#E09100" offset="77.54%"/>
   <stop stop-color="#E08900" offset="100%"/>
  </linearGradient>
  <linearGradient x1="1.128" y1="0" x2="-2.882" y2="0" id="h">
   <stop stop-color="#FFE840" offset="0%"/>
   <stop stop-color="#FFCE40" offset="40.87%"/>
   <stop stop-color="#FFBC40" offset="77.54%"/>
   <stop stop-color="#FFB540" offset="100%"/>
  </linearGradient>
  <linearGradient x1="3.061" y1="0.234" x2="-0.657" y2="-10.098" id="i">
   <stop stop-color="#40B8FF" offset="0%"/>
   <stop stop-color="#40B9FF" offset=".657%"/>
   <stop stop-color="#40CEFF" offset="26.01%"/>
   <stop stop-color="#40DDFF" offset="51.22%"/>
   <stop stop-color="#40E7FF" offset="76.04%"/>
   <stop stop-color="#40EAFF" offset="100%"/>
  </linearGradient>
  <linearGradient x1="-0.188" y1="0.856" x2="0.421" y2="0.537" id="j">
   <stop stop-color="#65B895" offset="0%"/>
   <stop stop-color="#62BD95" offset="6.85%"/>
   <stop stop-color="#50DB97" offset="47.62%"/>
   <stop stop-color="#44ED98" offset="80.09%"/>
   <stop stop-color="#40F498" offset="100%"/>
  </linearGradient>
  <linearGradient xlink:href="#j" id="svg_1" x1="-0.18807" y1="0.14365" x2="0.42096" y2="0.4633"/>
  <linearGradient xlink:href="#i" id="svg_2" x1="3.0608" y1="0.76616" x2="-0.6573" y2="11.09839"/>
  <linearGradient xlink:href="#h" id="svg_3" x1="1.12785" y1="1.00023" x2="-2.88198" y2="1.00023"/>
  <linearGradient xlink:href="#g" id="svg_4" x1="1.12786" y1="-0.00022" x2="-2.88225" y2="-0.00022"/>
  <linearGradient xlink:href="#f" id="svg_5" x1="3.07314" y1="-14.31773" x2="-0.66292" y2="-3.49571"/>
  <linearGradient xlink:href="#e" id="svg_6" x1="0.86247" y1="0.30497" x2="-0.50142" y2="1.02079"/>
  <linearGradient xlink:href="#d" id="svg_7" x1="-0.19329" y1="-0.11894" x2="0.41841" y2="0.35065"/>
  <linearGradient xlink:href="#c" id="svg_8" x1="0.86725" y1="0.30893" x2="-0.5048" y2="1.36058"/>
  <linearGradient xlink:href="#b" id="svg_9" x1="1.0759" y1="0.49132" x2="-1.30464" y2="0.49132"/>
  <linearGradient xlink:href="#a" id="svg_10" x1="0.61256" y1="0.04433" x2="0.26039" y2="0.72164"/>
 </defs>
 <g>
  <title>Layer 1</title>
  <path id="svg_12" d="m2887.921,890.028l-2776.847,0c-61.09,0 -111.074,-50.064 -111.074,-111.253l0,-667.521c0,-61.19 49.983,-111.254 111.074,-111.254l2776.846,0c61.09,0 111.074,50.064 111.074,111.254l0,667.52c0,61.19 -49.983,111.254 -111.074,111.254" fill="#000"/>
  <path id="svg_13" d="m2887.921,0l-2776.847,0c-61.09,0 -111.074,50.064 -111.074,111.254l0,667.52c0,61.19 49.983,111.254 111.074,111.254l2776.846,0c61.09,0 111.074,-50.064 111.074,-111.253l0,-667.521c0.001,-61.19 -49.982,-111.254 -111.074,-111.254m0,17.8c51.45,0 93.302,41.93 93.302,93.454l0,667.52c0,51.534 -41.853,93.463 -93.302,93.463l-2776.846,0c-51.44,0 -93.302,-41.93 -93.302,-93.462l0,-667.521c0,-51.524 41.861,-93.453 93.302,-93.453l2776.846,0" fill="#A6A6A6"/>
  <path id="svg_14" d="m1053.39,227.923c0,18.642 -5.512,33.487 -16.55,44.561c-12.539,13.168 -28.88,19.757 -48.969,19.757c-19.238,0 -35.595,-6.675 -49.046,-20.044c-13.475,-13.359 -20.2,-29.925 -20.2,-49.69c0,-19.774 6.725,-36.33 20.2,-49.7c13.451,-13.358 29.808,-20.043 49.046,-20.043c9.546,0 18.685,1.87 27.362,5.599c8.677,3.738 15.637,8.7 20.844,14.914l-11.716,11.742c-8.824,-10.56 -20.973,-15.836 -36.49,-15.836c-14.03,0 -26.162,4.938 -36.401,14.82c-10.241,9.892 -15.36,22.72 -15.36,38.504c0,15.785 5.119,28.612 15.36,38.505c10.239,9.882 22.37,14.819 36.401,14.819c14.884,0 27.293,-4.964 37.228,-14.906c6.449,-6.477 10.178,-15.48 11.176,-27.041l-48.405,0l0,-16.036l64.59,0c0.624,3.487 0.928,6.833 0.928,10.075" fill="#FFF"/>
  <path id="svg_15" d="m1053.39,227.923l-2.222,0c-0.018,18.217 -5.33,32.366 -15.9,42.988l-0.023,0.018l-0.01,0.018c-12.14,12.714 -27.745,19.042 -47.365,19.069c-18.724,-0.027 -34.397,-6.424 -47.484,-19.392c-13.058,-12.994 -19.515,-28.857 -19.54,-48.117c0.025,-19.269 6.482,-35.123 19.54,-48.108c13.087,-12.977 28.76,-19.383 47.484,-19.41c9.26,0 18.077,1.81 26.485,5.416c8.417,3.634 15.066,8.396 20.02,14.308l1.701,-1.436l-1.57,-1.573l-11.716,11.75l1.57,1.565l1.711,-1.424c-9.235,-11.083 -22.197,-16.67 -38.2,-16.637c-14.551,-0.018 -27.351,5.19 -37.939,15.447c-10.69,10.29 -16.061,23.84 -16.043,40.102c-0.018,16.263 5.353,29.812 16.043,40.103c10.588,10.257 23.388,15.464 37.938,15.446c15.377,0.027 28.482,-5.198 38.799,-15.558c6.89,-6.92 10.796,-16.505 11.82,-28.423l0.207,-2.416l-48.604,0l0,-11.586l62.368,0l0,-2.225l-2.188,0.391c0.608,3.374 0.895,6.58 0.895,9.684l4.443,0c0,-3.382 -0.313,-6.858 -0.964,-10.473l-0.329,-1.827l-68.667,0l0,20.486l50.625,0l0,-2.225l-2.212,-0.191c-0.98,11.196 -4.539,19.627 -10.535,25.66c-9.545,9.525 -21.26,14.226 -35.657,14.253c-13.51,-0.018 -24.973,-4.677 -34.857,-14.194c-9.788,-9.483 -14.657,-21.59 -14.682,-36.905c0.025,-15.315 4.894,-27.422 14.682,-36.905c9.884,-9.517 21.346,-14.176 34.857,-14.194c15.022,0.036 26.365,5.007 34.791,15.046l1.562,1.86l13.424,-13.463l1.44,-1.442l-1.311,-1.558c-5.458,-6.517 -12.73,-11.69 -21.668,-15.53c-8.955,-3.852 -18.405,-5.782 -28.238,-5.782c-19.749,-0.017 -36.792,6.936 -50.616,20.696c-13.875,13.733 -20.869,30.995 -20.85,51.272c-0.019,20.268 6.975,37.54 20.859,51.281c13.815,13.751 30.858,20.696 50.607,20.678c20.567,0.018 37.628,-6.824 50.575,-20.444l-1.607,-1.538l1.571,1.574c11.507,-11.517 17.216,-27.075 17.201,-46.135l-2.222,0m102.395,-55.767l-60.7,0l0,42.33l54.74,0l0,16.042l-54.74,0l0,42.33l60.7,0l0,16.401l-77.812,0l0,-133.504l77.812,0l0,16.401" fill="#FFF"/>
  <path id="svg_16" d="m1155.784,172.156l0,-2.225l-62.921,0l0,46.78l54.739,0l0,11.586l-54.74,0.006l0,46.78l60.7,0l0,11.951l-73.368,0l0,-129.054l73.368,0l0,14.176l2.222,0l0,-2.225l0,2.225l2.221,0l0,-18.626l-82.254,0l0,137.954l82.254,0l0,-20.851l-60.7,0l0,-37.88l54.74,0l0,-20.492l-54.74,0l0,-37.88l60.7,0l0,-2.225l-2.221,0m72.224,117.104l-17.138,0l0,-117.105l-37.228,0l0,-16.401l91.594,0l0,16.401l-37.228,0l0,117.103" fill="#FFF"/>
  <path id="svg_17" d="m1228.008,289.26l0,-2.226l-14.917,0l0,-117.103l-37.227,0l0,-11.95l87.15,0l0,11.95l-37.227,0l0,119.328l2.221,0l0,-2.225l0,2.225l2.222,0l0,-114.878l37.227,0l0,-20.851l-96.036,0l0,20.85l37.227,0l0,117.103l21.582,0l0,-2.225l-2.222,0m103.499,0.002l0,-133.506l17.121,0l0,133.504l-17.121,0" fill="#FFF"/>
  <path id="svg_18" d="m1331.507,289.26l2.222,0l0,-131.28l12.677,0l0,129.054l-14.899,0l0,2.225l2.222,0l-2.222,0l0,2.225l19.342,0l0,-137.954l-21.563,0l0,137.954l2.221,0l0,-2.225m93.093,0.001l-17.138,0l0,-117.105l-37.226,0l0,-16.401l91.592,0l0,16.401l-37.228,0l0,117.103" fill="#FFF"/>
  <path id="svg_19" d="m1424.6,289.26l0,-2.226l-14.917,0l0,-117.103l-37.225,0l0,-11.95l87.148,0l0,11.95l-37.227,0l0,119.328l2.221,0l0,-2.225l0,2.225l2.222,0l0,-114.878l37.227,0l0,-20.851l-96.034,0l0,20.85l37.225,0l0,117.103l21.582,0l0,-2.225l-2.222,0m125.532,-28.428c9.865,10.003 21.937,15 36.212,15c14.275,0 26.353,-4.997 36.203,-15c9.875,-10.004 14.822,-22.792 14.822,-38.323c0,-15.53 -4.947,-28.318 -14.822,-38.322c-9.85,-10.004 -21.928,-15.002 -36.203,-15.002c-14.275,0 -26.347,4.998 -36.212,15.002c-9.85,10.004 -14.795,22.791 -14.795,38.322c0,15.531 4.945,28.319 14.795,38.323zm85.084,11.176c-13.104,13.497 -29.4,20.235 -48.872,20.235c-19.491,0 -35.78,-6.738 -48.855,-20.235c-13.113,-13.482 -19.638,-29.985 -19.638,-49.499c0,-19.514 6.525,-36.02 19.638,-49.499c13.076,-13.5 29.364,-20.244 48.855,-20.244c19.369,0 35.621,6.78 48.786,20.331c13.146,13.55 19.724,30.02 19.724,49.412c0,19.514 -6.562,36.017 -19.638,49.499z" fill="#FFF"/>
  <path id="svg_20" d="m1550.132,260.83l-1.58,1.564c10.232,10.404 22.997,15.689 37.792,15.662c14.786,0.027 27.568,-5.258 37.783,-15.662c10.299,-10.414 15.479,-23.886 15.463,-39.887c0.015,-16 -5.164,-29.473 -15.463,-39.887c-10.215,-10.404 -22.997,-15.688 -37.783,-15.662c-14.795,-0.026 -27.56,5.258 -37.792,15.662c-10.274,10.414 -15.464,23.887 -15.437,39.887c-0.027,16 5.163,29.473 15.437,39.887l1.58,-1.564l1.58,-1.565c-9.424,-9.605 -14.136,-21.687 -14.154,-36.758c0.018,-15.07 4.73,-27.152 14.153,-36.758c9.51,-9.603 20.869,-14.314 34.633,-14.34c13.753,0.026 25.138,4.737 34.624,14.34c9.441,9.606 14.153,21.688 14.17,36.758c-0.017,15.07 -4.729,27.153 -14.17,36.758c-9.486,9.604 -20.87,14.314 -34.624,14.34c-13.764,-0.026 -25.123,-4.736 -34.633,-14.34l-1.579,1.565zm85.084,11.176l-1.588,-1.546c-12.738,13.072 -28.315,19.53 -47.284,19.556c-18.978,-0.027 -34.555,-6.484 -47.269,-19.556l-0.06,-0.07l0.06,0.07c-12.711,-13.117 -18.984,-28.935 -19.002,-47.953c0.018,-19.018 6.291,-34.836 19.002,-47.952c12.714,-13.073 28.29,-19.539 47.269,-19.565c18.847,0.026 34.388,6.519 47.197,19.66c12.756,13.177 19.065,28.97 19.092,47.857c-0.027,19.018 -6.318,34.836 -19.005,47.953l1.588,1.546l1.598,1.546c13.466,-13.853 20.277,-31.037 20.262,-51.045c0.016,-19.894 -6.822,-37.043 -20.351,-50.958c-13.536,-13.97 -30.492,-21.034 -50.381,-21.01c-19.993,-0.024 -37.001,7.007 -50.452,20.923l0,-0.01c-13.493,13.863 -20.28,31.047 -20.262,51.055c-0.018,20.008 6.769,37.192 20.262,51.054l0.06,0.063l-0.06,-0.072c13.451,13.916 30.459,20.932 50.452,20.914c19.984,0.018 36.992,-6.998 50.47,-20.914l-1.598,-1.546zm43.674,17.254l0,-133.506l20.845,0l64.778,103.857l0.738,0l-0.738,-25.728l0,-78.129l17.139,0l0,133.504l-17.877,0l-67.772,-108.89l-0.738,0l0.738,25.737l0,83.153l-17.112,0" fill="#FFF"/>
  <path id="svg_21" d="m1678.89,289.26l2.222,0l0,-131.28l17.39,0l64.778,103.857l4.252,0l-0.798,-27.986l0,-75.87l12.696,0l0,129.053l-14.422,0l-67.772,-108.89l-4.252,0l0.797,27.998l0,80.892l-14.89,0l0,2.225l2.221,0l-2.221,0l0,2.225l19.333,0l0,-85.413l-0.737,-25.762l-2.222,0.06l0,2.225l0.738,0l0,-2.225l-1.884,1.183l68.424,109.932l21.33,0l0,-137.954l-21.581,0l0,80.38l0.737,25.762l2.222,-0.06l0,-2.225l-0.738,0l0,2.225l1.884,-1.181l-65.432,-104.901l-24.295,0l0,137.954l2.222,0l0,-2.225m696.668,378.262l41.452,0l0,-278.16l-41.453,0l0.001,278.16zm373.363,-177.96l-47.517,120.596l-1.422,0l-49.317,-120.597l-44.652,0l73.953,168.556l-42.163,93.758l43.252,0l113.962,-262.314l-46.096,0.001zm-235.077,146.367c-13.595,0 -32.522,-6.798 -32.522,-23.624c0,-21.47 23.592,-29.7 43.94,-29.7c18.24,0 26.792,3.936 37.877,9.31c-3.221,25.761 -25.37,44.014 -49.295,44.014zm4.999,-152.453c-30.013,0 -61.091,13.245 -73.953,42.59l36.787,15.384c7.864,-15.384 22.504,-20.4 37.877,-20.4c21.437,0 43.23,12.89 43.585,35.793l0,2.86c-7.509,-4.295 -23.57,-10.735 -43.23,-10.735c-39.653,0 -80.04,21.824 -80.04,62.623c0,37.219 32.523,61.198 68.955,61.198c27.88,0 43.23,-12.525 52.893,-27.195l1.422,0l0,21.468l40.009,0l0,-106.648c0,-49.376 -36.788,-76.938 -84.305,-76.938zm-256.181,39.946l-58.958,0l0,-95.346l58.958,0c30.99,0 48.584,25.7 48.584,47.672c0,21.556 -17.595,47.674 -48.584,47.674zm-1.066,-134.06l-99.323,0l0,278.16l41.43,0l0,-105.386l57.893,0c45.94,0 91.102,-33.316 91.102,-86.388c0,-53.07 -45.162,-86.386 -91.102,-86.386zm-541.619,246.618c-28.637,0 -52.613,-24.015 -52.613,-57c0,-33.331 23.976,-57.712 52.613,-57.712c28.273,0 50.461,24.38 50.461,57.712c0,32.985 -22.188,57 -50.46,57l-0.001,0zm47.597,-130.843l-1.432,0c-9.302,-11.11 -27.205,-21.147 -49.748,-21.147c-47.242,0 -90.543,41.58 -90.543,94.99c0,53.055 43.3,94.279 90.543,94.279c22.543,0 40.446,-10.04 49.748,-21.504l1.432,0l0,13.62c0,36.211 -19.324,55.567 -50.46,55.567c-25.41,0 -41.158,-18.288 -47.607,-33.699l-36.14,15.055c10.378,25.092 37.937,55.923 83.747,55.923c48.672,0 89.83,-28.684 89.83,-98.582l0,-169.913l-39.37,0l0,15.411zm67.998,162.385l41.515,0l0,-278.17l-41.515,0l0,278.17zm102.716,-91.766c-1.075,-36.567 28.273,-55.202 49.386,-55.202c16.474,0 30.425,8.24 35.068,20.08l-84.454,35.122zm128.84,-31.543c-7.865,-21.156 -31.857,-60.223 -80.887,-60.223c-48.672,0 -89.11,38.355 -89.11,94.634c0,53.055 40.082,94.635 93.762,94.635c43.312,0 68.37,-26.528 78.745,-41.939l-32.212,-21.512c-10.73,15.776 -25.413,26.172 -46.533,26.172c-21.113,0 -36.141,-9.682 -45.81,-28.675l126.332,-52.34l-4.287,-10.752zm-1006.512,-31.186l0,40.147l95.912,0c-2.863,22.582 -10.379,39.07 -21.833,50.542c-13.953,13.985 -35.785,29.396 -74.08,29.396c-59.053,0 -105.217,-47.675 -105.217,-106.822c0,-59.146 46.164,-106.827 105.218,-106.827c31.854,0 55.11,12.549 72.291,28.68l28.273,-28.316c-23.976,-22.947 -55.832,-40.511 -100.564,-40.511c-80.886,0 -148.884,65.96 -148.884,146.974c0,81.015 67.998,146.969 148.884,146.969c43.665,0 76.588,-14.332 102.352,-41.224c26.485,-26.528 34.72,-63.806 34.72,-93.914c0,-9.327 -0.713,-17.923 -2.153,-25.094l-134.919,0zm246.115,122.953c-28.637,0 -53.333,-23.66 -53.333,-57.356c0,-34.055 24.696,-57.356 53.333,-57.356c28.626,0 53.322,23.301 53.322,57.356c0,33.697 -24.696,57.356 -53.322,57.356zm0,-151.99c-52.258,0 -94.848,39.788 -94.848,94.634c0,54.488 42.59,94.635 94.848,94.635c52.247,0 94.837,-40.147 94.837,-94.635c0,-54.846 -42.59,-94.634 -94.837,-94.634zm206.89,151.99c-28.625,0 -53.324,-23.66 -53.324,-57.356c0,-34.055 24.699,-57.356 53.325,-57.356c28.628,0 53.324,23.301 53.324,57.356c0,33.697 -24.696,57.356 -53.324,57.356l-0.001,0zm0,-151.99c-52.255,0 -94.836,39.788 -94.836,94.634c0,54.488 42.581,94.635 94.837,94.635c52.249,0 94.84,-40.147 94.84,-94.635c0,-54.846 -42.591,-94.634 -94.84,-94.634l-0.001,0z" fill="#FFF"/>
  <path id="svg_22" d="m233.446,169.357c-7.455,6.737 -11.905,17.974 -11.905,32.89l0,-3.372l0,492.21l0,-3.242c0,13.775 3.817,24.413 10.281,31.264l1.65,1.582l0,0.007c5.232,4.729 11.941,7.24 19.63,7.232c7.513,0 15.966,-2.399 24.887,-7.465l322.452,-183.508l110.76,-63.041c14.067,-8.004 21.964,-18.33 23.284,-28.848l0,-0.043c-1.32,-10.542 -9.217,-20.86 -23.283,-28.865l-110.77,-63.033l-322.442,-183.508c-8.94,-5.075 -17.399,-7.483 -24.932,-7.483c-7.68,0 -14.38,2.503 -19.61,7.223l-0.002,0z" fill="#00C1FF"/>
  <path id="svg_23" fill="url(#svg_10)" d="m233.47299,720.68897l-1.651,-1.582c-6.464,-6.85 -10.281,-17.489 -10.281,-31.264l0,3.242l0,-492.088l0,3.25c0,-14.916 4.45,-26.153 11.905,-32.89l275.237,275.675l-275.21,275.657"/>
  <path id="svg_24" fill="url(#svg_9)" d="m600.44101,536.95402l-91.758,-91.922l91.75,-91.907l110.769,63.032c14.066,8.006 21.963,18.323 23.283,28.866l0,0.042c-1.32,10.518 -9.217,20.845 -23.283,28.848l-110.76,63.04"/>
  <path id="svg_25" fill="url(#svg_8)" d="m253.102,727.92797c-7.688,0.007 -14.397,-2.505 -19.628,-7.233l0,-0.007l275.21,-275.657l91.758,91.922l-322.453,183.509c-8.921,5.067 -17.374,7.466 -24.887,7.466"/>
  <path id="svg_26" fill="url(#svg_7)" d="m508.683,445.03299l-275.238,-275.675c5.232,-4.72 11.932,-7.223 19.611,-7.223c7.533,0 15.993,2.407 24.932,7.483l322.444,183.508l-91.75,91.907"/>
  <path id="svg_27" fill="url(#svg_6)" d="m253.111,731.18697c-7.688,0 -14.406,-2.512 -19.638,-7.24l-0.009,0.008a0.635,-0.635 0 0 1 -0.069,-0.06l-1.431,-1.4c-0.045,-0.044 -0.087,-0.095 -0.14,-0.146l1.65,-1.653c5.232,4.728 11.94,7.24 19.63,7.231c7.512,0 15.965,-2.398 24.886,-7.465l322.452,-183.508l2.066,2.07l-2.092,1.19l-322.427,183.498c-8.13,4.616 -15.863,7.023 -22.848,7.424a41.848,-41.848 0 0 0 -2.03,0.05"/>
  <path id="svg_28" fill="url(#svg_5)" d="m231.82199,722.34901c-6.464,-6.85 -10.281,-17.48 -10.281,-31.264l0,-3.242c0,13.775 3.817,24.413 10.281,31.264l1.65,1.582l-1.65,1.66"/>
  <path id="svg_29" fill="url(#svg_4)" d="m602.50701,539.02302l-2.066,-2.07l110.76,-63.04c14.067,-8.003 21.964,-18.33 23.284,-28.848c0,3.86 -0.86,7.719 -2.568,11.475c-3.446,7.57 -10.352,14.723 -20.715,20.624l-108.695,61.86"/>
  <path id="svg_30" fill="url(#svg_3)" d="m734.48501,445.02399c-1.32,-10.543 -9.217,-20.86 -23.283,-28.866l-110.77,-63.032l2.066,-2.07l0.009,0l108.695,61.86c15.508,8.831 23.274,20.468 23.283,32.108"/>
  <path id="svg_31" fill="url(#svg_2)" d="m221.54099,202.247l0,-3.4c0,-1.226 0.033,-2.425 0.096,-3.589l0,-0.053c0,-0.016 0,-0.033 0.006,-0.051l0,-0.131c0.669,-11.865 4.348,-21.12 10.179,-27.3l1.624,1.633c-7.455,6.738 -11.905,17.975 -11.905,32.891"/>
  <path id="svg_32" fill="url(#svg_1)" d="m600.432,353.12601l-322.443,-183.51c-8.939,-5.075 -17.398,-7.482 -24.931,-7.482c-7.68,0 -14.38,2.503 -19.611,7.223l-1.624,-1.634a29.747,-29.747 0 0 0 1.58,-1.555c0.017,-0.018 0.044,-0.036 0.061,-0.053c5.19,-4.684 11.819,-7.187 19.43,-7.232l0.164,0c7.533,0 15.992,2.408 24.931,7.485l324.518,184.681l-0.009,0.007l-2.066,2.07"/>
 </g>
</svg>